<svg xmlns="http://www.w3.org/2000/svg" xmlns:xlink="http://www.w3.org/1999/xlink" width="350" zoomAndPan="magnify" viewBox="0 0 262.5 374.999991" height="500" preserveAspectRatio="xMidYMid meet" version="1.2"><defs><clipPath id="6d8093dbb4"><path d="M 0 0.355469 L 262 0.355469 L 262 263 L 0 263 Z M 0 0.355469 "/></clipPath><clipPath id="bf356f1d25"><path d="M 0 0.355469 L 262 0.355469 L 262 262.355469 L 0 262.355469 Z M 0 0.355469 "/></clipPath><clipPath id="fa97bf96b4"><path d="M 0 0.355469 L 262 0.355469 L 262 262.355469 L 0 262.355469 Z M 0 0.355469 "/></clipPath><clipPath id="647c9439c4"><rect x="0" width="262" y="0" height="263"/></clipPath></defs><g id="c9251a7d34"><g clip-rule="nonzero" clip-path="url(#6d8093dbb4)"><g transform="matrix(1,0,0,1,0,0.000000000000023592)"><g clip-path="url(#647c9439c4)"><g clip-rule="nonzero" clip-path="url(#bf356f1d25)"><path style=" stroke:none;fill-rule:nonzero;fill:#ffffff;fill-opacity:1;" d="M 0 0.355469 L 262 0.355469 L 262 262.355469 L 0 262.355469 Z M 0 0.355469 "/></g><path style=" stroke:none;fill-rule:nonzero;fill:#ffffff;fill-opacity:1;" d="M 0 4.875 L 63.242188 4.875 M 81.3125 4.875 L 90.34375 4.875 M 126.484375 4.875 L 135.519531 4.875 M 144.550781 4.875 L 153.585938 4.875 M 171.65625 4.875 L 189.726562 4.875 M 198.757812 4.875 L 262 4.875 M 0 13.910156 L 9.035156 13.910156 M 54.207031 13.910156 L 63.242188 13.910156 M 81.3125 13.910156 L 90.34375 13.910156 M 108.414062 13.910156 L 117.449219 13.910156 M 135.519531 13.910156 L 171.65625 13.910156 M 180.691406 13.910156 L 189.726562 13.910156 M 198.757812 13.910156 L 207.792969 13.910156 M 252.964844 13.910156 L 262 13.910156 M 0 22.941406 L 9.035156 22.941406 M 18.070312 22.941406 L 45.171875 22.941406 M 54.207031 22.941406 L 63.242188 22.941406 M 72.277344 22.941406 L 81.3125 22.941406 M 90.34375 22.941406 L 108.414062 22.941406 M 144.550781 22.941406 L 153.585938 22.941406 M 198.757812 22.941406 L 207.792969 22.941406 M 216.828125 22.941406 L 243.933594 22.941406 M 252.964844 22.941406 L 262 22.941406 M 0 31.976562 L 9.035156 31.976562 M 18.070312 31.976562 L 45.171875 31.976562 M 54.207031 31.976562 L 63.242188 31.976562 M 72.277344 31.976562 L 99.378906 31.976562 M 108.414062 31.976562 L 144.550781 31.976562 M 153.585938 31.976562 L 180.691406 31.976562 M 198.757812 31.976562 L 207.792969 31.976562 M 216.828125 31.976562 L 243.933594 31.976562 M 252.964844 31.976562 L 262 31.976562 M 0 41.011719 L 9.035156 41.011719 M 18.070312 41.011719 L 45.171875 41.011719 M 54.207031 41.011719 L 63.242188 41.011719 M 72.277344 41.011719 L 81.3125 41.011719 M 99.378906 41.011719 L 108.414062 41.011719 M 117.449219 41.011719 L 126.484375 41.011719 M 144.550781 41.011719 L 189.726562 41.011719 M 198.757812 41.011719 L 207.792969 41.011719 M 216.828125 41.011719 L 243.933594 41.011719 M 252.964844 41.011719 L 262 41.011719 M 0 50.046875 L 9.035156 50.046875 M 54.207031 50.046875 L 63.242188 50.046875 M 72.277344 50.046875 L 99.378906 50.046875 M 108.414062 50.046875 L 117.449219 50.046875 M 126.484375 50.046875 L 162.621094 50.046875 M 180.691406 50.046875 L 189.726562 50.046875 M 198.757812 50.046875 L 207.792969 50.046875 M 252.964844 50.046875 L 262 50.046875 M 0 59.082031 L 63.242188 59.082031 M 72.277344 59.082031 L 81.3125 59.082031 M 90.34375 59.082031 L 99.378906 59.082031 M 108.414062 59.082031 L 117.449219 59.082031 M 126.484375 59.082031 L 135.519531 59.082031 M 144.550781 59.082031 L 153.585938 59.082031 M 162.621094 59.082031 L 171.65625 59.082031 M 180.691406 59.082031 L 189.726562 59.082031 M 198.757812 59.082031 L 262 59.082031 M 72.277344 68.117188 L 81.3125 68.117188 M 90.34375 68.117188 L 99.378906 68.117188 M 108.414062 68.117188 L 117.449219 68.117188 M 162.621094 68.117188 L 180.691406 68.117188 M 0 77.148438 L 9.035156 77.148438 M 18.070312 77.148438 L 63.242188 77.148438 M 99.378906 77.148438 L 108.414062 77.148438 M 117.449219 77.148438 L 162.621094 77.148438 M 180.691406 77.148438 L 189.726562 77.148438 M 198.757812 77.148438 L 243.933594 77.148438 M 0 86.183594 L 9.035156 86.183594 M 18.070312 86.183594 L 27.105469 86.183594 M 45.171875 86.183594 L 54.207031 86.183594 M 72.277344 86.183594 L 99.378906 86.183594 M 117.449219 86.183594 L 126.484375 86.183594 M 144.550781 86.183594 L 153.585938 86.183594 M 162.621094 86.183594 L 225.863281 86.183594 M 252.964844 86.183594 L 262 86.183594 M 9.035156 95.21875 L 18.070312 95.21875 M 45.171875 95.21875 L 63.242188 95.21875 M 72.277344 95.21875 L 81.3125 95.21875 M 117.449219 95.21875 L 162.621094 95.21875 M 180.691406 95.21875 L 189.726562 95.21875 M 216.828125 95.21875 L 225.863281 95.21875 M 9.035156 104.253906 L 27.105469 104.253906 M 36.136719 104.253906 L 45.171875 104.253906 M 72.277344 104.253906 L 90.34375 104.253906 M 99.378906 104.253906 L 108.414062 104.253906 M 126.484375 104.253906 L 135.519531 104.253906 M 144.550781 104.253906 L 153.585938 104.253906 M 198.757812 104.253906 L 234.898438 104.253906 M 243.933594 104.253906 L 252.964844 104.253906 M 18.070312 113.289062 L 27.105469 113.289062 M 36.136719 113.289062 L 99.378906 113.289062 M 108.414062 113.289062 L 135.519531 113.289062 M 153.585938 113.289062 L 162.621094 113.289062 M 171.65625 113.289062 L 189.726562 113.289062 M 207.792969 113.289062 L 216.828125 113.289062 M 225.863281 113.289062 L 243.933594 113.289062 M 0 122.324219 L 9.035156 122.324219 M 36.136719 122.324219 L 54.207031 122.324219 M 72.277344 122.324219 L 90.34375 122.324219 M 99.378906 122.324219 L 108.414062 122.324219 M 126.484375 122.324219 L 135.519531 122.324219 M 153.585938 122.324219 L 225.863281 122.324219 M 252.964844 122.324219 L 262 122.324219 M 0 131.355469 L 9.035156 131.355469 M 18.070312 131.355469 L 27.105469 131.355469 M 45.171875 131.355469 L 81.3125 131.355469 M 99.378906 131.355469 L 117.449219 131.355469 M 126.484375 131.355469 L 153.585938 131.355469 M 162.621094 131.355469 L 171.65625 131.355469 M 198.757812 131.355469 L 216.828125 131.355469 M 225.863281 131.355469 L 243.933594 131.355469 M 18.070312 140.390625 L 45.171875 140.390625 M 63.242188 140.390625 L 81.3125 140.390625 M 108.414062 140.390625 L 117.449219 140.390625 M 144.550781 140.390625 L 153.585938 140.390625 M 180.691406 140.390625 L 189.726562 140.390625 M 198.757812 140.390625 L 216.828125 140.390625 M 243.933594 140.390625 L 252.964844 140.390625 M 0 149.425781 L 18.070312 149.425781 M 27.105469 149.425781 L 63.242188 149.425781 M 99.378906 149.425781 L 108.414062 149.425781 M 117.449219 149.425781 L 126.484375 149.425781 M 153.585938 149.425781 L 162.621094 149.425781 M 171.65625 149.425781 L 180.691406 149.425781 M 225.863281 149.425781 L 243.933594 149.425781 M 0 158.460938 L 9.035156 158.460938 M 18.070312 158.460938 L 36.136719 158.460938 M 45.171875 158.460938 L 54.207031 158.460938 M 72.277344 158.460938 L 108.414062 158.460938 M 117.449219 158.460938 L 126.484375 158.460938 M 144.550781 158.460938 L 153.585938 158.460938 M 171.65625 158.460938 L 189.726562 158.460938 M 198.757812 158.460938 L 225.863281 158.460938 M 234.898438 158.460938 L 243.933594 158.460938 M 252.964844 158.460938 L 262 158.460938 M 0 167.496094 L 9.035156 167.496094 M 18.070312 167.496094 L 63.242188 167.496094 M 72.277344 167.496094 L 90.34375 167.496094 M 99.378906 167.496094 L 108.414062 167.496094 M 117.449219 167.496094 L 153.585938 167.496094 M 180.691406 167.496094 L 189.726562 167.496094 M 207.792969 167.496094 L 216.828125 167.496094 M 234.898438 167.496094 L 243.933594 167.496094 M 0 176.53125 L 9.035156 176.53125 M 18.070312 176.53125 L 45.171875 176.53125 M 72.277344 176.53125 L 81.3125 176.53125 M 126.484375 176.53125 L 144.550781 176.53125 M 162.621094 176.53125 L 171.65625 176.53125 M 189.726562 176.53125 L 207.792969 176.53125 M 216.828125 176.53125 L 225.863281 176.53125 M 243.933594 176.53125 L 252.964844 176.53125 M 0 185.5625 L 9.035156 185.5625 M 18.070312 185.5625 L 27.105469 185.5625 M 36.136719 185.5625 L 72.277344 185.5625 M 81.3125 185.5625 L 90.34375 185.5625 M 108.414062 185.5625 L 117.449219 185.5625 M 153.585938 185.5625 L 162.621094 185.5625 M 180.691406 185.5625 L 225.863281 185.5625 M 234.898438 185.5625 L 262 185.5625 M 72.277344 194.597656 L 90.34375 194.597656 M 117.449219 194.597656 L 126.484375 194.597656 M 144.550781 194.597656 L 171.65625 194.597656 M 180.691406 194.597656 L 189.726562 194.597656 M 216.828125 194.597656 L 262 194.597656 M 0 203.632812 L 63.242188 203.632812 M 90.34375 203.632812 L 108.414062 203.632812 M 117.449219 203.632812 L 144.550781 203.632812 M 162.621094 203.632812 L 189.726562 203.632812 M 198.757812 203.632812 L 207.792969 203.632812 M 216.828125 203.632812 L 243.933594 203.632812 M 0 212.667969 L 9.035156 212.667969 M 54.207031 212.667969 L 63.242188 212.667969 M 72.277344 212.667969 L 90.34375 212.667969 M 99.378906 212.667969 L 108.414062 212.667969 M 117.449219 212.667969 L 126.484375 212.667969 M 144.550781 212.667969 L 153.585938 212.667969 M 162.621094 212.667969 L 189.726562 212.667969 M 216.828125 212.667969 L 225.863281 212.667969 M 0 221.703125 L 9.035156 221.703125 M 18.070312 221.703125 L 45.171875 221.703125 M 54.207031 221.703125 L 63.242188 221.703125 M 72.277344 221.703125 L 81.3125 221.703125 M 90.34375 221.703125 L 108.414062 221.703125 M 126.484375 221.703125 L 135.519531 221.703125 M 153.585938 221.703125 L 162.621094 221.703125 M 180.691406 221.703125 L 225.863281 221.703125 M 234.898438 221.703125 L 262 221.703125 M 0 230.738281 L 9.035156 230.738281 M 18.070312 230.738281 L 45.171875 230.738281 M 54.207031 230.738281 L 63.242188 230.738281 M 72.277344 230.738281 L 81.3125 230.738281 M 99.378906 230.738281 L 126.484375 230.738281 M 180.691406 230.738281 L 189.726562 230.738281 M 225.863281 230.738281 L 262 230.738281 M 0 239.769531 L 9.035156 239.769531 M 18.070312 239.769531 L 45.171875 239.769531 M 54.207031 239.769531 L 63.242188 239.769531 M 72.277344 239.769531 L 81.3125 239.769531 M 99.378906 239.769531 L 108.414062 239.769531 M 117.449219 239.769531 L 126.484375 239.769531 M 135.519531 239.769531 L 144.550781 239.769531 M 171.65625 239.769531 L 252.964844 239.769531 M 0 248.804688 L 9.035156 248.804688 M 54.207031 248.804688 L 63.242188 248.804688 M 90.34375 248.804688 L 99.378906 248.804688 M 180.691406 248.804688 L 198.757812 248.804688 M 207.792969 248.804688 L 216.828125 248.804688 M 225.863281 248.804688 L 234.898438 248.804688 M 243.933594 248.804688 L 252.964844 248.804688 M 0 257.839844 L 63.242188 257.839844 M 72.277344 257.839844 L 90.34375 257.839844 M 99.378906 257.839844 L 108.414062 257.839844 M 117.449219 257.839844 L 144.550781 257.839844 M 153.585938 257.839844 L 162.621094 257.839844 M 171.65625 257.839844 L 180.691406 257.839844 M 216.828125 257.839844 L 243.933594 257.839844 "/><g clip-rule="nonzero" clip-path="url(#fa97bf96b4)"><path style="fill:none;stroke-width:1;stroke-linecap:butt;stroke-linejoin:miter;stroke:#0065bd;stroke-opacity:1;stroke-miterlimit:4;" d="M 0 0.500142 L 7.000065 0.500142 M 9.000207 0.500142 L 9.999845 0.500142 M 14.00013 0.500142 L 15.000201 0.500142 M 15.999839 0.500142 L 16.99991 0.500142 M 19.000052 0.500142 L 21.000194 0.500142 M 21.999833 0.500142 L 28.999898 0.500142 M 0 1.500213 L 1.000071 1.500213 M 5.999994 1.500213 L 7.000065 1.500213 M 9.000207 1.500213 L 9.999845 1.500213 M 11.999987 1.500213 L 13.000059 1.500213 M 15.000201 1.500213 L 19.000052 1.500213 M 20.000123 1.500213 L 21.000194 1.500213 M 21.999833 1.500213 L 22.999904 1.500213 M 27.999827 1.500213 L 28.999898 1.500213 M 0 2.499852 L 1.000071 2.499852 M 2.000142 2.499852 L 4.999923 2.499852 M 5.999994 2.499852 L 7.000065 2.499852 M 8.000136 2.499852 L 9.000207 2.499852 M 9.999845 2.499852 L 11.999987 2.499852 M 15.999839 2.499852 L 16.99991 2.499852 M 21.999833 2.499852 L 22.999904 2.499852 M 23.999975 2.499852 L 27.000188 2.499852 M 27.999827 2.499852 L 28.999898 2.499852 M 0 3.499923 L 1.000071 3.499923 M 2.000142 3.499923 L 4.999923 3.499923 M 5.999994 3.499923 L 7.000065 3.499923 M 8.000136 3.499923 L 10.999916 3.499923 M 11.999987 3.499923 L 15.999839 3.499923 M 16.99991 3.499923 L 20.000123 3.499923 M 21.999833 3.499923 L 22.999904 3.499923 M 23.999975 3.499923 L 27.000188 3.499923 M 27.999827 3.499923 L 28.999898 3.499923 M 0 4.499994 L 1.000071 4.499994 M 2.000142 4.499994 L 4.999923 4.499994 M 5.999994 4.499994 L 7.000065 4.499994 M 8.000136 4.499994 L 9.000207 4.499994 M 10.999916 4.499994 L 11.999987 4.499994 M 13.000059 4.499994 L 14.00013 4.499994 M 15.999839 4.499994 L 21.000194 4.499994 M 21.999833 4.499994 L 22.999904 4.499994 M 23.999975 4.499994 L 27.000188 4.499994 M 27.999827 4.499994 L 28.999898 4.499994 M 0 5.500065 L 1.000071 5.500065 M 5.999994 5.500065 L 7.000065 5.500065 M 8.000136 5.500065 L 10.999916 5.500065 M 11.999987 5.500065 L 13.000059 5.500065 M 14.00013 5.500065 L 17.999981 5.500065 M 20.000123 5.500065 L 21.000194 5.500065 M 21.999833 5.500065 L 22.999904 5.500065 M 27.999827 5.500065 L 28.999898 5.500065 M 0 6.500136 L 7.000065 6.500136 M 8.000136 6.500136 L 9.000207 6.500136 M 9.999845 6.500136 L 10.999916 6.500136 M 11.999987 6.500136 L 13.000059 6.500136 M 14.00013 6.500136 L 15.000201 6.500136 M 15.999839 6.500136 L 16.99991 6.500136 M 17.999981 6.500136 L 19.000052 6.500136 M 20.000123 6.500136 L 21.000194 6.500136 M 21.999833 6.500136 L 28.999898 6.500136 M 8.000136 7.500207 L 9.000207 7.500207 M 9.999845 7.500207 L 10.999916 7.500207 M 11.999987 7.500207 L 13.000059 7.500207 M 17.999981 7.500207 L 20.000123 7.500207 M 0 8.499845 L 1.000071 8.499845 M 2.000142 8.499845 L 7.000065 8.499845 M 10.999916 8.499845 L 11.999987 8.499845 M 13.000059 8.499845 L 17.999981 8.499845 M 20.000123 8.499845 L 21.000194 8.499845 M 21.999833 8.499845 L 27.000188 8.499845 M 0 9.499916 L 1.000071 9.499916 M 2.000142 9.499916 L 3.000213 9.499916 M 4.999923 9.499916 L 5.999994 9.499916 M 8.000136 9.499916 L 10.999916 9.499916 M 13.000059 9.499916 L 14.00013 9.499916 M 15.999839 9.499916 L 16.99991 9.499916 M 17.999981 9.499916 L 25.000046 9.499916 M 27.999827 9.499916 L 28.999898 9.499916 M 1.000071 10.499988 L 2.000142 10.499988 M 4.999923 10.499988 L 7.000065 10.499988 M 8.000136 10.499988 L 9.000207 10.499988 M 13.000059 10.499988 L 17.999981 10.499988 M 20.000123 10.499988 L 21.000194 10.499988 M 23.999975 10.499988 L 25.000046 10.499988 M 1.000071 11.500059 L 3.000213 11.500059 M 3.999852 11.500059 L 4.999923 11.500059 M 8.000136 11.500059 L 9.999845 11.500059 M 10.999916 11.500059 L 11.999987 11.500059 M 14.00013 11.500059 L 15.000201 11.500059 M 15.999839 11.500059 L 16.99991 11.500059 M 21.999833 11.500059 L 26.000117 11.500059 M 27.000188 11.500059 L 27.999827 11.500059 M 2.000142 12.50013 L 3.000213 12.50013 M 3.999852 12.50013 L 10.999916 12.50013 M 11.999987 12.50013 L 15.000201 12.50013 M 16.99991 12.50013 L 17.999981 12.50013 M 19.000052 12.50013 L 21.000194 12.50013 M 22.999904 12.50013 L 23.999975 12.50013 M 25.000046 12.50013 L 27.000188 12.50013 M 0 13.500201 L 1.000071 13.500201 M 3.999852 13.500201 L 5.999994 13.500201 M 8.000136 13.500201 L 9.999845 13.500201 M 10.999916 13.500201 L 11.999987 13.500201 M 14.00013 13.500201 L 15.000201 13.500201 M 16.99991 13.500201 L 25.000046 13.500201 M 27.999827 13.500201 L 28.999898 13.500201 M 0 14.499839 L 1.000071 14.499839 M 2.000142 14.499839 L 3.000213 14.499839 M 4.999923 14.499839 L 9.000207 14.499839 M 10.999916 14.499839 L 13.000059 14.499839 M 14.00013 14.499839 L 16.99991 14.499839 M 17.999981 14.499839 L 19.000052 14.499839 M 21.999833 14.499839 L 23.999975 14.499839 M 25.000046 14.499839 L 27.000188 14.499839 M 2.000142 15.49991 L 4.999923 15.49991 M 7.000065 15.49991 L 9.000207 15.49991 M 11.999987 15.49991 L 13.000059 15.49991 M 15.999839 15.49991 L 16.99991 15.49991 M 20.000123 15.49991 L 21.000194 15.49991 M 21.999833 15.49991 L 23.999975 15.49991 M 27.000188 15.49991 L 27.999827 15.49991 M 0 16.499981 L 2.000142 16.499981 M 3.000213 16.499981 L 7.000065 16.499981 M 10.999916 16.499981 L 11.999987 16.499981 M 13.000059 16.499981 L 14.00013 16.499981 M 16.99991 16.499981 L 17.999981 16.499981 M 19.000052 16.499981 L 20.000123 16.499981 M 25.000046 16.499981 L 27.000188 16.499981 M 0 17.500052 L 1.000071 17.500052 M 2.000142 17.500052 L 3.999852 17.500052 M 4.999923 17.500052 L 5.999994 17.500052 M 8.000136 17.500052 L 11.999987 17.500052 M 13.000059 17.500052 L 14.00013 17.500052 M 15.999839 17.500052 L 16.99991 17.500052 M 19.000052 17.500052 L 21.000194 17.500052 M 21.999833 17.500052 L 25.000046 17.500052 M 26.000117 17.500052 L 27.000188 17.500052 M 27.999827 17.500052 L 28.999898 17.500052 M 0 18.500123 L 1.000071 18.500123 M 2.000142 18.500123 L 7.000065 18.500123 M 8.000136 18.500123 L 9.999845 18.500123 M 10.999916 18.500123 L 11.999987 18.500123 M 13.000059 18.500123 L 16.99991 18.500123 M 20.000123 18.500123 L 21.000194 18.500123 M 22.999904 18.500123 L 23.999975 18.500123 M 26.000117 18.500123 L 27.000188 18.500123 M 0 19.500194 L 1.000071 19.500194 M 2.000142 19.500194 L 4.999923 19.500194 M 8.000136 19.500194 L 9.000207 19.500194 M 14.00013 19.500194 L 15.999839 19.500194 M 17.999981 19.500194 L 19.000052 19.500194 M 21.000194 19.500194 L 22.999904 19.500194 M 23.999975 19.500194 L 25.000046 19.500194 M 27.000188 19.500194 L 27.999827 19.500194 M 0 20.499833 L 1.000071 20.499833 M 2.000142 20.499833 L 3.000213 20.499833 M 3.999852 20.499833 L 8.000136 20.499833 M 9.000207 20.499833 L 9.999845 20.499833 M 11.999987 20.499833 L 13.000059 20.499833 M 16.99991 20.499833 L 17.999981 20.499833 M 20.000123 20.499833 L 25.000046 20.499833 M 26.000117 20.499833 L 28.999898 20.499833 M 8.000136 21.499904 L 9.999845 21.499904 M 13.000059 21.499904 L 14.00013 21.499904 M 15.999839 21.499904 L 19.000052 21.499904 M 20.000123 21.499904 L 21.000194 21.499904 M 23.999975 21.499904 L 28.999898 21.499904 M 0 22.499975 L 7.000065 22.499975 M 9.999845 22.499975 L 11.999987 22.499975 M 13.000059 22.499975 L 15.999839 22.499975 M 17.999981 22.499975 L 21.000194 22.499975 M 21.999833 22.499975 L 22.999904 22.499975 M 23.999975 22.499975 L 27.000188 22.499975 M 0 23.500046 L 1.000071 23.500046 M 5.999994 23.500046 L 7.000065 23.500046 M 8.000136 23.500046 L 9.999845 23.500046 M 10.999916 23.500046 L 11.999987 23.500046 M 13.000059 23.500046 L 14.00013 23.500046 M 15.999839 23.500046 L 16.99991 23.500046 M 17.999981 23.500046 L 21.000194 23.500046 M 23.999975 23.500046 L 25.000046 23.500046 M 0 24.500117 L 1.000071 24.500117 M 2.000142 24.500117 L 4.999923 24.500117 M 5.999994 24.500117 L 7.000065 24.500117 M 8.000136 24.500117 L 9.000207 24.500117 M 9.999845 24.500117 L 11.999987 24.500117 M 14.00013 24.500117 L 15.000201 24.500117 M 16.99991 24.500117 L 17.999981 24.500117 M 20.000123 24.500117 L 25.000046 24.500117 M 26.000117 24.500117 L 28.999898 24.500117 M 0 25.500188 L 1.000071 25.500188 M 2.000142 25.500188 L 4.999923 25.500188 M 5.999994 25.500188 L 7.000065 25.500188 M 8.000136 25.500188 L 9.000207 25.500188 M 10.999916 25.500188 L 14.00013 25.500188 M 20.000123 25.500188 L 21.000194 25.500188 M 25.000046 25.500188 L 28.999898 25.500188 M 0 26.499827 L 1.000071 26.499827 M 2.000142 26.499827 L 4.999923 26.499827 M 5.999994 26.499827 L 7.000065 26.499827 M 8.000136 26.499827 L 9.000207 26.499827 M 10.999916 26.499827 L 11.999987 26.499827 M 13.000059 26.499827 L 14.00013 26.499827 M 15.000201 26.499827 L 15.999839 26.499827 M 19.000052 26.499827 L 27.999827 26.499827 M 0 27.499898 L 1.000071 27.499898 M 5.999994 27.499898 L 7.000065 27.499898 M 9.999845 27.499898 L 10.999916 27.499898 M 20.000123 27.499898 L 21.999833 27.499898 M 22.999904 27.499898 L 23.999975 27.499898 M 25.000046 27.499898 L 26.000117 27.499898 M 27.000188 27.499898 L 27.999827 27.499898 M 0 28.499969 L 7.000065 28.499969 M 8.000136 28.499969 L 9.999845 28.499969 M 10.999916 28.499969 L 11.999987 28.499969 M 13.000059 28.499969 L 15.999839 28.499969 M 16.99991 28.499969 L 17.999981 28.499969 M 19.000052 28.499969 L 20.000123 28.499969 M 23.999975 28.499969 L 27.000188 28.499969 " transform="matrix(9.034515,0,0,9.034515,0,0.356459)"/></g></g></g></g><g style="fill:#0065bd;fill-opacity:1;"><g transform="translate(13.591299, 342.167535)"><path style="stroke:none" d="M 32.03125 -11.9375 C 32.03125 -14.019531 31.242188 -15.632812 29.671875 -16.78125 C 28.109375 -17.9375 25.378906 -18.929688 21.484375 -19.765625 C 17.585938 -20.597656 14.492188 -21.59375 12.203125 -22.75 C 9.921875 -23.914062 8.226562 -25.300781 7.125 -26.90625 C 6.03125 -28.519531 5.484375 -30.4375 5.484375 -32.65625 C 5.484375 -36.34375 7.046875 -39.460938 10.171875 -42.015625 C 13.296875 -44.566406 17.285156 -45.84375 22.140625 -45.84375 C 27.234375 -45.84375 31.367188 -44.523438 34.546875 -41.890625 C 37.722656 -39.253906 39.3125 -35.882812 39.3125 -31.78125 L 31.578125 -31.78125 C 31.578125 -33.894531 30.679688 -35.710938 28.890625 -37.234375 C 27.097656 -38.753906 24.847656 -39.515625 22.140625 -39.515625 C 19.335938 -39.515625 17.144531 -38.90625 15.5625 -37.6875 C 13.976562 -36.46875 13.1875 -34.875 13.1875 -32.90625 C 13.1875 -31.050781 13.921875 -29.648438 15.390625 -28.703125 C 16.859375 -27.765625 19.515625 -26.863281 23.359375 -26 C 27.203125 -25.144531 30.316406 -24.117188 32.703125 -22.921875 C 35.085938 -21.734375 36.851562 -20.296875 38 -18.609375 C 39.15625 -16.929688 39.734375 -14.890625 39.734375 -12.484375 C 39.734375 -8.460938 38.125 -5.238281 34.90625 -2.8125 C 31.6875 -0.382812 27.507812 0.828125 22.375 0.828125 C 18.769531 0.828125 15.582031 0.191406 12.8125 -1.078125 C 10.039062 -2.359375 7.867188 -4.140625 6.296875 -6.421875 C 4.734375 -8.710938 3.953125 -11.191406 3.953125 -13.859375 L 11.65625 -13.859375 C 11.789062 -11.273438 12.820312 -9.226562 14.75 -7.71875 C 16.675781 -6.207031 19.21875 -5.453125 22.375 -5.453125 C 25.289062 -5.453125 27.628906 -6.039062 29.390625 -7.21875 C 31.148438 -8.394531 32.03125 -9.96875 32.03125 -11.9375 Z M 32.03125 -11.9375 "/></g></g><g style="fill:#0065bd;fill-opacity:1;"><g transform="translate(57.52708, 342.167535)"><path style="stroke:none" d="M 4 -22.875 C 4 -29.894531 5.617188 -35.476562 8.859375 -39.625 C 12.109375 -43.769531 16.410156 -45.84375 21.765625 -45.84375 C 27.253906 -45.84375 31.535156 -43.898438 34.609375 -40.015625 L 34.984375 -45.015625 L 42.015625 -45.015625 L 42.015625 -1.078125 C 42.015625 4.742188 40.285156 9.332031 36.828125 12.6875 C 33.378906 16.039062 28.742188 17.71875 22.921875 17.71875 C 19.679688 17.71875 16.503906 17.023438 13.390625 15.640625 C 10.285156 14.253906 7.914062 12.351562 6.28125 9.9375 L 10.28125 5.328125 C 13.582031 9.398438 17.613281 11.4375 22.375 11.4375 C 26.125 11.4375 29.046875 10.378906 31.140625 8.265625 C 33.234375 6.160156 34.28125 3.195312 34.28125 -0.625 L 34.28125 -4.5 C 31.195312 -0.945312 26.992188 0.828125 21.671875 0.828125 C 16.398438 0.828125 12.132812 -1.289062 8.875 -5.53125 C 5.625 -9.78125 4 -15.5625 4 -22.875 Z M 11.734375 -22.015625 C 11.734375 -16.929688 12.769531 -12.941406 14.84375 -10.046875 C 16.925781 -7.148438 19.84375 -5.703125 23.59375 -5.703125 C 28.445312 -5.703125 32.007812 -7.90625 34.28125 -12.3125 L 34.28125 -32.859375 C 31.925781 -37.160156 28.390625 -39.3125 23.671875 -39.3125 C 19.929688 -39.3125 17.003906 -37.851562 14.890625 -34.9375 C 12.785156 -32.03125 11.734375 -27.722656 11.734375 -22.015625 Z M 11.734375 -22.015625 "/></g></g><g style="fill:#0065bd;fill-opacity:1;"><g transform="translate(105.332212, 342.167535)"><path style="stroke:none" d="M 43.84375 -22.015625 C 43.84375 -15.160156 42.273438 -9.640625 39.140625 -5.453125 C 36.015625 -1.265625 31.773438 0.828125 26.421875 0.828125 C 20.953125 0.828125 16.648438 -0.90625 13.515625 -4.375 L 13.515625 17.3125 L 5.828125 17.3125 L 5.828125 -45.015625 L 12.859375 -45.015625 L 13.234375 -40.015625 C 16.367188 -43.898438 20.722656 -45.84375 26.296875 -45.84375 C 31.703125 -45.84375 35.976562 -43.800781 39.125 -39.71875 C 42.269531 -35.644531 43.84375 -29.976562 43.84375 -22.71875 Z M 36.15625 -22.875 C 36.15625 -27.957031 35.070312 -31.96875 32.90625 -34.90625 C 30.738281 -37.84375 27.769531 -39.3125 24 -39.3125 C 19.34375 -39.3125 15.847656 -37.242188 13.515625 -33.109375 L 13.515625 -11.609375 C 15.816406 -7.503906 19.34375 -5.453125 24.09375 -5.453125 C 27.78125 -5.453125 30.710938 -6.914062 32.890625 -9.84375 C 35.066406 -12.769531 36.15625 -17.113281 36.15625 -22.875 Z M 36.15625 -22.875 "/></g></g><g style="fill:#0065bd;fill-opacity:1;"><g transform="translate(153.137343, 342.167535)"><path style="stroke:none" d="M 14.1875 0 L 6.484375 0 L 6.484375 -63.90625 L 14.1875 -63.90625 Z M 14.1875 0 "/></g></g><g style="fill:#0065bd;fill-opacity:1;"><g transform="translate(173.815458, 342.167535)"><path style="stroke:none" d="M 3.78125 -22.921875 C 3.78125 -27.328125 4.644531 -31.289062 6.375 -34.8125 C 8.113281 -38.34375 10.53125 -41.0625 13.625 -42.96875 C 16.71875 -44.882812 20.25 -45.84375 24.21875 -45.84375 C 30.34375 -45.84375 35.296875 -43.71875 39.078125 -39.46875 C 42.867188 -35.226562 44.765625 -29.585938 44.765625 -22.546875 L 44.765625 -22.015625 C 44.765625 -17.628906 43.925781 -13.695312 42.25 -10.21875 C 40.570312 -6.738281 38.171875 -4.023438 35.046875 -2.078125 C 31.929688 -0.140625 28.347656 0.828125 24.296875 0.828125 C 18.191406 0.828125 13.242188 -1.289062 9.453125 -5.53125 C 5.671875 -9.78125 3.78125 -15.394531 3.78125 -22.375 Z M 11.53125 -22.015625 C 11.53125 -17.015625 12.6875 -13.003906 15 -9.984375 C 17.3125 -6.960938 20.410156 -5.453125 24.296875 -5.453125 C 28.203125 -5.453125 31.304688 -6.984375 33.609375 -10.046875 C 35.910156 -13.109375 37.0625 -17.398438 37.0625 -22.921875 C 37.0625 -27.859375 35.890625 -31.859375 33.546875 -34.921875 C 31.203125 -37.984375 28.09375 -39.515625 24.21875 -39.515625 C 20.414062 -39.515625 17.347656 -38.003906 15.015625 -34.984375 C 12.691406 -31.960938 11.53125 -27.640625 11.53125 -22.015625 Z M 11.53125 -22.015625 "/></g></g><g style="fill:#0065bd;fill-opacity:1;"><g transform="translate(222.411083, 342.167535)"><path style="stroke:none" d="M 16.265625 -55.921875 L 16.265625 -45.015625 L 24.671875 -45.015625 L 24.671875 -39.0625 L 16.265625 -39.0625 L 16.265625 -11.15625 C 16.265625 -9.351562 16.640625 -8 17.390625 -7.09375 C 18.140625 -6.1875 19.414062 -5.734375 21.21875 -5.734375 C 22.101562 -5.734375 23.320312 -5.898438 24.875 -6.234375 L 24.875 0 C 22.851562 0.550781 20.882812 0.828125 18.96875 0.828125 C 15.53125 0.828125 12.9375 -0.207031 11.1875 -2.28125 C 9.4375 -4.363281 8.5625 -7.320312 8.5625 -11.15625 L 8.5625 -39.0625 L 0.375 -39.0625 L 0.375 -45.015625 L 8.5625 -45.015625 L 8.5625 -55.921875 Z M 16.265625 -55.921875 "/></g></g></g></svg>